<svg width="95" height="30" viewBox="0 0 95 30" fill="none" xmlns="http://www.w3.org/2000/svg">
<path d="M0.279071 25.4103L0.18457 25.3548L1.87446 22.582L1.96896 22.6376L0.279071 25.4103Z" fill="url(#paint0_linear_1256_50078)"/>
<path d="M6.37012 12.2853L7.87657 9.82373C9.13287 7.7678 9.81661 3.58925 9.82217 3.55035V3.52813L11.7066 0.583139C11.7289 0.5498 11.7678 0.527573 11.8122 0.544243C11.8512 0.555356 11.8789 0.594252 11.8789 0.633148L11.9401 6.88986L11.9234 6.90653L6.37012 12.2853ZM9.92779 3.57814C9.88887 3.82263 9.19958 7.86226 7.96551 9.8793L6.92044 11.5963L11.8289 6.8454L11.7678 0.688714L9.92779 3.57814Z" fill="url(#paint1_linear_1256_50078)"/>
<path d="M18.8056 29.9665H11.4346V25.4713H0V17.342L1.77328 14.197C1.78995 14.1692 1.82886 14.1525 1.86222 14.1636C1.89557 14.1748 1.91781 14.2025 1.91781 14.2359C1.91781 15.0194 1.8511 21.8651 1.84554 22.5541H13.4024V27.0549H20.5511C20.6178 27.0549 20.6845 27.0938 20.7123 27.1549C20.7457 27.216 20.7401 27.2883 20.7012 27.3438L18.8001 29.9721L18.8056 29.9665ZM11.5402 29.8554H18.7445L20.6122 27.2716C20.6122 27.2716 20.6289 27.2216 20.6122 27.1938C20.6011 27.1716 20.5733 27.1549 20.5455 27.1549H13.2857V22.6541H1.73436V22.5985C1.73436 22.5263 1.80107 15.6695 1.80663 14.3859L0.111177 17.3865V25.3601H11.5402V29.8554Z" fill="url(#paint2_linear_1256_50078)"/>
<path d="M11.5515 25.4433L11.457 25.3822L13.2637 22.6206L13.3582 22.6762L11.5515 25.4433Z" fill="url(#paint3_linear_1256_50078)"/>
<path d="M11.5681 29.9054L11.4736 29.8498L13.2747 27.0938L13.3692 27.1493L11.5681 29.9054Z" fill="url(#paint4_linear_1256_50078)"/>
<path d="M15.6643 22.6205H1.79492V14.7969H15.6643V22.6205ZM1.9061 22.5094H15.5531V14.908H1.9061V22.5094Z" fill="url(#paint5_linear_1256_50078)"/>
<path d="M20.7291 27.2104H13.2803V14.7358H20.7291V27.2104ZM13.3915 27.0992H20.618V14.847H13.3915V27.0992Z" fill="url(#paint6_linear_1256_50078)"/>
<path d="M1.78486 22.5931V14.1804L1.81265 14.1637C1.85156 14.1415 5.57044 11.8577 7.86069 9.56843C10.1509 7.28468 11.7296 0.388964 11.7463 0.322285L11.7574 0.277832H19.1785L18.9673 2.55047C18.9284 2.93943 18.8672 3.30617 18.7783 3.66735C18.7505 3.78403 18.7171 3.91739 18.6838 4.06742C18.3614 5.45656 17.6887 8.34598 15.0761 12.5857C11.2016 18.8813 1.95162 22.5264 1.85712 22.5653L1.7793 22.5931H1.78486ZM1.89603 14.2415V22.4264C2.79101 22.0652 11.3127 18.4867 14.9816 12.5245C17.5831 8.29598 18.2557 5.42322 18.5726 4.03964C18.606 3.88961 18.6393 3.75625 18.6671 3.63401C18.756 3.27838 18.8172 2.91721 18.8505 2.5338L19.0507 0.383407H11.8408C11.7741 0.666793 11.3906 2.2782 10.7735 4.11187C10.1454 5.96777 9.15034 8.43489 7.93851 9.64067C5.74276 11.8355 2.23512 14.0248 1.89603 14.236V14.2415Z" fill="url(#paint7_linear_1256_50078)"/>
<path d="M15.6088 14.8525H1.85059V22.5651H15.6088V14.8525Z" fill="url(#paint8_linear_1256_50078)"/>
<path d="M20.6729 27.1549V14.7915H13.3352V27.1549H20.6729Z" fill="url(#paint9_linear_1256_50078)"/>
<path d="M19.1168 0.333379H11.8013C11.8013 0.333379 10.2282 7.28466 7.90456 9.60731C5.58095 11.93 1.83984 14.2082 1.83984 14.2082V22.5097C1.83984 22.5097 11.1176 18.909 15.031 12.5523C17.9161 7.8681 18.4219 4.87866 18.7277 3.6451C18.8166 3.27837 18.8777 2.91163 18.9111 2.53378L19.1168 0.322266V0.333379Z" fill="url(#paint10_linear_1256_50078)"/>
<path d="M40.3113 10.4185L40.2168 10.3574L42.2124 7.2124L42.3069 7.27353L40.3113 10.4185Z" fill="url(#paint11_linear_1256_50078)"/>
<path d="M47.4044 10.4297L47.3154 10.3686L49.2166 7.47363L49.3111 7.53476L47.4044 10.4297Z" fill="url(#paint12_linear_1256_50078)"/>
<path d="M42.2387 26.8805L40.4814 29.8247L40.5769 29.8816L42.3342 26.9374L42.2387 26.8805Z" fill="url(#paint13_linear_1256_50078)"/>
<path d="M50.2232 14.0859H45.8984L45.8762 14.0414C45.8595 13.9969 45.8317 13.9192 46.6322 13.2801C47.416 12.6578 47.3381 10.7463 47.3215 10.4074H40.1172V3.33943L42.1351 0.177734L42.1684 0.194404C42.5075 0.194404 50.0898 0.244413 50.1676 0.244413H50.2232V14.0803V14.0859ZM46.0207 13.9747H50.1176V0.361101C43.6137 0.322205 42.4186 0.311092 42.1906 0.305536L40.2284 3.37277V10.2907H47.4271V10.3407C47.4382 10.4352 47.605 12.6467 46.7044 13.3635C46.243 13.7302 46.0763 13.8969 46.0151 13.9692L46.0207 13.9747Z" fill="url(#paint14_linear_1256_50078)"/>
<path d="M54.1698 29.9945H40.3672V17.7034L40.3783 17.6923L42.1627 14.6973L42.2127 14.7473C42.2127 14.7473 42.3684 14.8528 42.3461 26.9273L56.1488 27.094L56.0932 27.1773L54.1754 30.0001L54.1698 29.9945ZM40.4728 29.8834H54.1087L56.0598 27.0329H42.2294V26.9773C42.235 23.1766 42.1905 16.0864 42.1794 14.8973L40.4784 17.7312V29.8834H40.4728Z" fill="url(#paint15_linear_1256_50078)"/>
<path d="M44.6641 20.8146V15.5137H53.3192L53.3414 15.5359C53.3692 15.5692 53.4248 15.6415 52.8189 16.8528C52.6355 17.2195 52.2964 17.7363 51.8072 18.3753C50.6621 19.8811 48.861 20.7813 46.9821 20.7813H46.315L44.6641 20.8035V20.8146ZM44.7752 15.6304V20.7035L46.315 20.6813H46.9821C48.8276 20.6813 50.5954 19.7978 51.7183 18.3142C52.2019 17.6752 52.5354 17.1695 52.7188 16.8084C53.1358 15.9804 53.2247 15.7137 53.2414 15.6248H44.7752V15.6304Z" fill="url(#paint16_linear_1256_50078)"/>
<path d="M42.1299 7.37901V0.149902H50.0401L56.1326 5.98431L55.977 9.37938C55.7102 15.1082 51.1186 19.6868 45.3929 19.9369L56.0937 20.2758V27.0382H42.2188V14.7359C42.2188 14.7359 46.1934 14.4192 47.6443 12.091C49.0951 9.76278 49.2452 7.52348 49.2452 7.52348C49.2452 7.52348 42.2633 7.37901 42.1354 7.37901H42.1299Z" fill="url(#paint17_linear_1256_50078)"/>
<path d="M56.1378 27.0937H42.1573V14.6858H42.2073C42.2462 14.6803 46.1708 14.3413 47.5883 12.0631C48.8835 9.98495 49.1392 7.94569 49.1726 7.57895C48.4888 7.56784 42.2407 7.44004 42.1239 7.44004H42.0684V0.0942383H50.0564L50.0731 0.110908L56.1823 5.96199V5.98421L56.0266 9.37928C55.8988 12.1631 54.7425 14.7803 52.7692 16.7473C51.0181 18.4921 48.7612 19.5923 46.332 19.909L56.1434 20.2202V27.0937H56.1378ZM42.2685 26.9825H56.0322V20.3257L45.387 19.9868V19.8757C48.1442 19.7534 50.7402 18.6143 52.6913 16.6695C54.6425 14.7247 55.7932 12.1298 55.921 9.37373L56.0767 6.00644L50.012 0.20537H42.1795V7.32335C42.841 7.33446 48.9613 7.46226 49.2337 7.46782H49.2893V7.52894C49.2893 7.55117 49.117 9.8127 47.6828 12.1242C46.9268 13.3411 45.4759 14.0024 44.3975 14.3413C43.3803 14.6636 42.4853 14.7692 42.2685 14.7914V26.9881V26.9825Z" fill="url(#paint18_linear_1256_50078)"/>
<path d="M23.0291 11.9138L22.9346 11.8582L24.9802 8.76318L25.0747 8.82431L23.0291 11.9138Z" fill="url(#paint19_linear_1256_50078)"/>
<path d="M30.0066 11.9634L29.9121 11.9078L31.8188 9.09619L31.9133 9.15731L30.0066 11.9634Z" fill="url(#paint20_linear_1256_50078)"/>
<path d="M23.2459 29.9L23.1514 29.8445L24.8746 26.9995L24.9691 27.0551L23.2459 29.9Z" fill="url(#paint21_linear_1256_50078)"/>
<path d="M24.8473 0.233554L24.9085 0.294676L24.8863 0.328016C24.8362 0.666967 24.9919 6.49582 25.0586 8.81291H32.1072V18.3147H29.8948V11.9746H22.8906V3.20632L22.9017 3.19521L24.7473 0.155762L24.8585 0.233554H24.8473ZM30.0004 18.2035H31.9905V8.92404H24.9474V8.86848C24.7751 2.86182 24.7528 0.900343 24.7751 0.350242L22.9962 3.23966V11.8579H30.0004V18.198V18.2035Z" fill="url(#paint22_linear_1256_50078)"/>
<path d="M30.0282 29.967H23.1074V20.9486L24.8585 18.0259L25.4088 19.2428L39.734 19.3706L38.7834 21.2098L30.0226 29.967H30.0282ZM23.2186 29.8558H29.9837L38.7 21.1431L39.5894 19.4873L25.331 19.3539L24.864 18.2204L23.2186 20.982V29.8558Z" fill="url(#paint23_linear_1256_50078)"/>
<path d="M24.792 0.177909V9.14067H31.8684V18.0645H24.9143V27.0273H31.9907L39.6842 19.337V7.74597L31.9907 0.0556641C31.9907 0.0556641 24.8921 0.0778904 24.792 0.177909Z" fill="url(#paint24_linear_1256_50078)"/>
<path d="M32.0129 27.0883H24.8586V18.0144H31.8128V9.2017H24.7363V0.155584L24.753 0.138914C24.8586 0.0333395 29.3335 0.00555658 31.9906 0H32.0129L39.7397 7.72365V19.3702L32.0129 27.0939V27.0883ZM24.9698 26.9772H31.9684L39.6285 19.3202V7.7681L31.9684 0.111132C29.2779 0.116688 25.27 0.155584 24.8475 0.222263V9.09056H31.9239V18.1256H24.9698V26.9772Z" fill="url(#paint25_linear_1256_50078)"/>
<path d="M64.8404 0.553223H59.8096L59.9224 12.7196L61.3281 12.7276V8.48868H64.8404C65.944 8.48868 66.947 8.04605 67.672 7.32827C68.401 6.61049 68.8481 5.61756 68.8481 4.52095C68.8481 2.33172 67.0517 0.553223 64.8404 0.553223ZM64.7598 7.21661H61.2878L61.2556 1.83326C61.2556 1.83326 63.1084 1.82928 64.78 1.84523C65.5251 1.84921 66.1978 2.15228 66.6851 2.63478C67.1725 3.12128 67.4746 3.79121 67.4746 4.52893C67.4746 6.01234 66.2582 7.21661 64.7598 7.21661Z" fill="#FEFEFE"/>
<path d="M79.0379 1.81696L72.4922 1.86541V5.97559H78.2227V7.30797H72.5161V11.6039H79.1778V12.912H71.1055L71.0615 0.553223L79.0379 0.577448V1.81696Z" fill="#FEFEFE"/>
<path d="M61.113 0.705952L61.2371 12.8172L59.8798 14.775H58.7628L58.6186 2.89598L59.8838 0.721967C60.5725 0.721967 60.9288 0.717964 61.113 0.701949M61.2131 0.609863L59.8278 0.625878L58.5186 2.87196L58.6627 14.8751H59.9279L61.3332 12.8492L61.2131 0.609863Z" fill="#FEFEFE"/>
<path d="M60.0954 12.6533L58.8262 14.6832" stroke="#FEFEFE" stroke-width="0.25" stroke-miterlimit="10"/>
<path d="M71.1979 12.6533L69.9287 14.6832" stroke="#FEFEFE" stroke-width="0.25" stroke-miterlimit="10"/>
<path d="M61.0771 3.98117H63.3513C63.8397 3.98117 64.3322 4.06925 64.7766 4.27344C65.2891 4.50966 65.8296 4.91804 65.9537 5.61869C66.2019 7.02399 66.0418 7.27222 66.0418 7.27222C66.0418 7.27222 67.6833 6.33536 67.8434 5.38247C68.0036 4.42959 67.4791 1.13453 64.8567 1.28267C62.2342 1.43081 61.0932 1.50288 61.0932 1.50288L61.0771 3.97717V3.98117Z" stroke="#FEFEFE" stroke-width="0.25" stroke-miterlimit="10"/>
<path d="M68.0555 6.75977C68.0555 6.75977 67.0706 8.92177 66.1858 9.69048C65.5412 10.251 64.8005 10.6033 64.0678 10.6193C63.3352 10.6354 61.2412 10.6354 61.2412 10.6354V8.36926L68.0555 6.76377V6.75977Z" stroke="#FEFEFE" stroke-width="0.25" stroke-miterlimit="10"/>
<path d="M70.9423 0.898227L71.2466 12.5771V12.6731H71.3427L78.9858 12.8453L77.6806 14.7391L69.7652 14.7751L69.6771 2.73593L70.9383 0.898227M71.0344 0.585938L69.5811 2.7039L69.6691 14.8752L77.7366 14.8391L79.178 12.7492L71.3467 12.573L71.0344 0.585938Z" fill="#FEFEFE"/>
<path d="M77.9328 7.28857L76.6677 9.17832H72.4117C72.4197 8.97013 72.4237 8.48168 72.4197 7.28857H77.9328ZM78.121 7.18848H72.3196C72.3196 7.18848 72.3276 9.2584 72.3076 9.27841H76.7197L78.121 7.18848Z" fill="#FEFEFE"/>
<path d="M78.8166 1.92334L77.3472 3.94121H72.4106C72.4227 3.72501 72.4227 3.20452 72.4186 1.92334H78.8166ZM79.0168 1.82324H72.3226C72.3226 1.82324 72.3306 4.02128 72.3105 4.0413H77.4033L79.0208 1.82324H79.0168Z" fill="#FEFEFE"/>
<defs>
<linearGradient id="paint0_linear_1256_50078" x1="1.13705" y1="22.7752" x2="1.06322" y2="25.41" gradientUnits="userSpaceOnUse">
<stop offset="0.225962" stop-color="#4FB6FE"/>
<stop offset="0.899038" stop-color="#F4FFFF"/>
</linearGradient>
<linearGradient id="paint1_linear_1256_50078" x1="9.34329" y1="1.34078" x2="8.93553" y2="12.2771" gradientUnits="userSpaceOnUse">
<stop offset="0.225962" stop-color="#4FB6FE"/>
<stop offset="0.899038" stop-color="#F4FFFF"/>
</linearGradient>
<linearGradient id="paint2_linear_1256_50078" x1="11.0676" y1="15.24" x2="10.8689" y2="29.9789" gradientUnits="userSpaceOnUse">
<stop offset="0.225962" stop-color="#4FB6FE"/>
<stop offset="0.899038" stop-color="#F4FFFF"/>
</linearGradient>
<linearGradient id="paint3_linear_1256_50078" x1="12.4718" y1="22.8134" x2="12.4028" y2="25.4432" gradientUnits="userSpaceOnUse">
<stop offset="0.225962" stop-color="#4FB6FE"/>
<stop offset="0.899038" stop-color="#F4FFFF"/>
</linearGradient>
<linearGradient id="paint4_linear_1256_50078" x1="12.4855" y1="27.2858" x2="12.4168" y2="29.9053" gradientUnits="userSpaceOnUse">
<stop offset="0.225962" stop-color="#4FB6FE"/>
<stop offset="0.899038" stop-color="#F4FFFF"/>
</linearGradient>
<linearGradient id="paint5_linear_1256_50078" x1="9.19817" y1="15.3312" x2="9.12543" y2="22.6245" gradientUnits="userSpaceOnUse">
<stop offset="0.225962" stop-color="#4FB6FE"/>
<stop offset="0.899038" stop-color="#F4FFFF"/>
</linearGradient>
<linearGradient id="paint6_linear_1256_50078" x1="17.2564" y1="15.5877" x2="16.9123" y2="27.2076" gradientUnits="userSpaceOnUse">
<stop offset="0.225962" stop-color="#4FB6FE"/>
<stop offset="0.899038" stop-color="#F4FFFF"/>
</linearGradient>
<linearGradient id="paint7_linear_1256_50078" x1="11.0667" y1="1.80178" x2="10.5952" y2="22.5957" gradientUnits="userSpaceOnUse">
<stop offset="0.225962" stop-color="#4FB6FE"/>
<stop offset="0.899038" stop-color="#F4FFFF"/>
</linearGradient>
<linearGradient id="paint8_linear_1256_50078" x1="8.72967" y1="14.8525" x2="8.72967" y2="22.5651" gradientUnits="userSpaceOnUse">
<stop offset="0.225962" stop-color="#0753C4"/>
<stop offset="0.899038" stop-color="#0030A0"/>
</linearGradient>
<linearGradient id="paint9_linear_1256_50078" x1="25.824" y1="13.8344" x2="21.6672" y2="23.1016" gradientUnits="userSpaceOnUse">
<stop stop-color="white"/>
<stop offset="0.700118" stop-color="#0092F1"/>
<stop offset="0.899038" stop-color="#006FFA"/>
</linearGradient>
<linearGradient id="paint10_linear_1256_50078" x1="19.0307" y1="2.98045" x2="1.15449" y2="16.9881" gradientUnits="userSpaceOnUse">
<stop stop-color="white"/>
<stop offset="0.552885" stop-color="#0092F1"/>
<stop offset="0.899038" stop-color="#0144B9"/>
</linearGradient>
<linearGradient id="paint11_linear_1256_50078" x1="41.2619" y1="7.2124" x2="41.2619" y2="10.4185" gradientUnits="userSpaceOnUse">
<stop stop-color="#51B6FE"/>
<stop offset="1" stop-color="#F4FFFF"/>
</linearGradient>
<linearGradient id="paint12_linear_1256_50078" x1="48.3132" y1="7.47363" x2="48.3132" y2="10.4297" gradientUnits="userSpaceOnUse">
<stop stop-color="#51B6FE"/>
<stop offset="1" stop-color="#F4FFFF"/>
</linearGradient>
<linearGradient id="paint13_linear_1256_50078" x1="41.3601" y1="28.3526" x2="41.4555" y2="28.4096" gradientUnits="userSpaceOnUse">
<stop stop-color="#51B6FE"/>
<stop offset="1" stop-color="#F4FFFF"/>
</linearGradient>
<linearGradient id="paint14_linear_1256_50078" x1="45.1702" y1="0.177734" x2="45.1702" y2="14.0859" gradientUnits="userSpaceOnUse">
<stop stop-color="#51B6FE"/>
<stop offset="1" stop-color="#F4FFFF"/>
</linearGradient>
<linearGradient id="paint15_linear_1256_50078" x1="48.258" y1="14.6973" x2="48.258" y2="30.0001" gradientUnits="userSpaceOnUse">
<stop stop-color="#51B6FE"/>
<stop offset="1" stop-color="#F4FFFF"/>
</linearGradient>
<linearGradient id="paint16_linear_1256_50078" x1="49.0104" y1="15.5137" x2="49.0104" y2="20.8146" gradientUnits="userSpaceOnUse">
<stop stop-color="#51B6FE"/>
<stop offset="1" stop-color="#F4FFFF"/>
</linearGradient>
<linearGradient id="paint17_linear_1256_50078" x1="60.6022" y1="5.56683" x2="49.0637" y2="27.0018" gradientUnits="userSpaceOnUse">
<stop stop-color="white"/>
<stop offset="0.552885" stop-color="#0092F1"/>
<stop offset="0.899038" stop-color="#0044B9"/>
</linearGradient>
<linearGradient id="paint18_linear_1256_50078" x1="60.6873" y1="5.53355" x2="49.1253" y2="27.0937" gradientUnits="userSpaceOnUse">
<stop stop-color="white"/>
<stop offset="0.552885" stop-color="#0092F1"/>
<stop offset="0.899038" stop-color="#0044B9"/>
</linearGradient>
<linearGradient id="paint19_linear_1256_50078" x1="25.0066" y1="10.8034" x2="24.2268" y2="12.0525" gradientUnits="userSpaceOnUse">
<stop stop-color="#50B6FE"/>
<stop offset="1" stop-color="#F4FFFF"/>
</linearGradient>
<linearGradient id="paint20_linear_1256_50078" x1="31.8496" y1="10.9529" x2="31.1486" y2="12.1067" gradientUnits="userSpaceOnUse">
<stop stop-color="#50B6FE"/>
<stop offset="1" stop-color="#F4FFFF"/>
</linearGradient>
<linearGradient id="paint21_linear_1256_50078" x1="24.9113" y1="28.8778" x2="24.1695" y2="29.974" gradientUnits="userSpaceOnUse">
<stop stop-color="#50B6FE"/>
<stop offset="1" stop-color="#F4FFFF"/>
</linearGradient>
<linearGradient id="paint22_linear_1256_50078" x1="31.8139" y1="11.915" x2="26.8911" y2="17.8068" gradientUnits="userSpaceOnUse">
<stop stop-color="#50B6FE"/>
<stop offset="1" stop-color="#F4FFFF"/>
</linearGradient>
<linearGradient id="paint23_linear_1256_50078" x1="39.2049" y1="25.7586" x2="37.3711" y2="31.7793" gradientUnits="userSpaceOnUse">
<stop stop-color="#50B6FE"/>
<stop offset="1" stop-color="#F4FFFF"/>
</linearGradient>
<linearGradient id="paint24_linear_1256_50078" x1="37.5381" y1="2.95145" x2="24.7182" y2="27.1157" gradientUnits="userSpaceOnUse">
<stop stop-color="white"/>
<stop offset="0.552885" stop-color="#0092F1"/>
<stop offset="0.899038" stop-color="#0144B9"/>
</linearGradient>
<linearGradient id="paint25_linear_1256_50078" x1="32.238" y1="0" x2="32.238" y2="27.0939" gradientUnits="userSpaceOnUse">
<stop stop-color="white"/>
<stop offset="0.552885" stop-color="#0092F1"/>
<stop offset="0.899038" stop-color="#006FFA"/>
</linearGradient>
</defs>
</svg>
